<svg xmlns="http://www.w3.org/2000/svg" width="512" height="512" fill="none"><mask id="a" width="512" height="512" x="0" y="0" maskUnits="userSpaceOnUse" style="mask-type:alpha"><circle cx="256" cy="256" r="256" fill="#D9D9D9"/></mask><g mask="url(#a)"><rect width="512" height="512" fill="#384B5A" rx="2"/><rect width="511" height="511" x=".5" y=".5" stroke="#fff" stroke-opacity=".1" rx="1.5"/><circle cx="256" cy="256" r="128" fill="#F4E49D"/><path fill="url(#b)" fill-rule="evenodd" d="M424.703 136.596a104 104 0 0 1 5.585 14.209L298.805 282.288a104 104 0 0 1-14.209-5.585zM330 287c-5.108 0-10.13-.365-15.042-1.069l118.973-118.973a106 106 0 0 1 1.003 18.79L333.748 286.934Q331.882 287 330 287m26.974-3.497c36.312-9.625 64.904-38.217 74.529-74.529zm60.552-159.525a105 105 0 0 0-8.583-11.211L260.767 260.943a105 105 0 0 0 11.211 8.583zm-29.73-29.654a105 105 0 0 1 11.237 8.558L250.882 251.033a105 105 0 0 1-8.558-11.237zm-12.646-7.148a104 104 0 0 0-14.242-5.553L229.623 212.908a104 104 0 0 0 5.553 14.242zM330 77c4.994 0 9.906.349 14.714 1.023L226.023 196.714a106 106 0 0 1-.943-18.852L325.862 77.08Q327.921 77 330 77m-27.488 3.635c-35.896 9.71-64.167 37.981-73.877 73.877z" clip-rule="evenodd"/><mask id="c" width="256" height="256" x="128" y="128" maskUnits="userSpaceOnUse" style="mask-type:alpha"><circle cx="256" cy="256" r="128" fill="#F4E49D"/></mask><g mask="url(#c)"><circle cx="330" cy="182" r="105" fill="#384B5A"/></g></g><defs><radialGradient id="b" cx="0" cy="0" r="1" gradientTransform="matrix(148.5002 -148.5002 140.33595 140.33595 256 256)" gradientUnits="userSpaceOnUse"><stop offset=".605" stop-color="gray"/><stop offset=".722" stop-color="gray" stop-opacity=".5"/><stop offset="1" stop-color="gray" stop-opacity="0"/></radialGradient></defs></svg>