<?xml version="1.0" encoding="iso-8859-1"?>
<!-- Generator: Adobe Illustrator 18.0.0, SVG Export Plug-In . SVG Version: 6.00 Build 0)  -->
<!DOCTYPE svg PUBLIC "-//W3C//DTD SVG 1.1//EN" "http://www.w3.org/Graphics/SVG/1.1/DTD/svg11.dtd">
<svg version="1.1" id="_x32_" xmlns="http://www.w3.org/2000/svg" xmlns:xlink="http://www.w3.org/1999/xlink" x="0px" y="0px"
	 viewBox="0 0 512 512" style="enable-background:new 0 0 512 512;" xml:space="preserve">
<g>
	<rect style="fill:#3C3F44;" width="512" height="512"/>
	<path style="opacity:0.15;fill:#040000;" d="M378.112,127.989l-17.562-17.562c-9.882-6.349-21.504-9.575-33.229-9.216
		c-3.277-0.153-6.605,0-9.882,0.461c5.171,3.943,9.626,9.011,12.902,15.104c6.605,12.288,7.117,26.214,2.611,38.349
		c-3.84,10.189-11.213,19.098-21.555,24.678c-11.776,6.298-24.986,7.014-36.762,3.123c0.307,0.563,0.563,1.075,0.87,1.639
		c0.819,1.536,1.69,3.021,2.662,4.403l2.099,2.15l13.824,13.773c0.051,0.051,0.051,0.051,0.051,0.051l3.123,3.174
		c0,0,0.051,0,0.103,0.051l52.697,52.696c-0.136,0.323-0.303,0.63-0.421,0.961c-8.295-3.993-17.664-6.246-27.495-6.246
		c-3.738,0-7.424,0.359-11.008,0.973c-3.379,0.563-6.656,1.434-9.83,2.611c-5.018-17.767-20.327-31.539-38.963-34.099
		c-2.509-0.358-4.966-0.512-7.373-0.512c-2.458,0.051-4.966,0.307-7.373,0.666c-3.789,0.666-7.475,1.741-10.905,3.174
		c-6.912-22.426-26.01-39.475-49.562-43.622v0.051c-3.533-0.666-7.219-0.973-11.008-0.973c-34.97,0-63.386,28.365-63.386,63.386
		c0,1.792,0.103,3.584,0.205,5.376c-4.045-1.126-8.499-1.433-13.056-0.768c-14.08,2.15-25.139,13.875-26.419,28.057
		c-0.614,6.298,0.666,12.288,3.328,17.408c-8.294,2.253-14.541,9.523-15.462,18.329l11.213,11.213
		c0.41,0.461,0.871,0.87,1.331,1.331L257.69,511.989H512v-89.139v-88.678v-72.294L378.112,127.989z"/>
	<g>
		<g>
			<linearGradient id="SVGID_1_" gradientUnits="userSpaceOnUse" x1="124.174" y1="378.8977" x2="124.174" y2="260.158">
				<stop  offset="0" style="stop-color:#C2CECE"/>
				<stop  offset="1" style="stop-color:#FFFFFF"/>
			</linearGradient>
			<path style="fill:url(#SVGID_1_);" d="M187.142,184.8c-0.975,2.456-1.872,4.913-2.651,7.447
				c-0.702-0.117-1.365-0.195-2.066-0.273c-2.067-0.234-4.133-0.351-6.277-0.351c-30.684,0-55.599,24.914-55.599,55.599
				c0,1.598,0.039,3.158,0.195,4.718l0.936,11.112l-10.761-2.924c-0.507-0.156-1.052-0.273-1.559-0.39
				c-1.56-0.312-3.119-0.468-4.679-0.468c-1.209,0-2.417,0.078-3.626,0.273c-4.601,0.702-8.773,2.768-12.126,5.77
				c-0.468,0.429-0.936,0.897-1.365,1.365c-0.429,0.468-0.858,0.936-1.287,1.443c-1.209,1.521-2.222,3.197-3.041,4.952
				c-1.092,2.339-1.794,4.874-2.027,7.525c-0.429,4.562,0.468,9.084,2.534,13.061l4.445,8.539v0.039l-9.279,2.573
				c-1.092,0.312-2.145,0.741-3.08,1.248c-4.133,2.378-6.823,6.823-6.823,11.736c0,3.704,1.521,7.057,3.938,9.513
				c0.585,0.624,1.287,1.17,1.988,1.677c2.183,1.443,4.757,2.3,7.564,2.3h59.069l-7.798,7.798H82.494
				c-1.287,0-2.534-0.117-3.743-0.351c-1.52-0.273-3.002-0.702-4.367-1.287c-5.224-2.144-9.396-6.316-11.541-11.541
				c-0.585-1.365-1.014-2.846-1.287-4.367c-0.234-1.209-0.351-2.456-0.351-3.743c0-9.747,6.628-18.013,15.596-20.508
				c-2.651-5.108-3.938-11.073-3.353-17.389c1.287-14.153,12.36-25.928,26.435-28.072c4.562-0.663,9.007-0.351,13.061,0.78
				c-0.117-1.794-0.234-3.587-0.234-5.381c0-35.013,28.423-63.397,63.436-63.397C179.89,183.825,183.594,184.176,187.142,184.8z"/>
			<path style="fill:#E1C943;" d="M247.575,225.232l-12.204,12.204l-3.548,1.521l-2.573-8.227
				c-6.394-20.703-23.861-35.363-44.76-38.482c0.78-2.534,1.677-4.991,2.651-7.447v-0.039c23.549,4.133,42.615,21.21,49.555,43.629
				C240.128,226.947,243.793,225.894,247.575,225.232z"/>
			<linearGradient id="SVGID_2_" gradientUnits="userSpaceOnUse" x1="216.0328" y1="378.8724" x2="216.0328" y2="260.1235">
				<stop  offset="0" style="stop-color:#C2CECE"/>
				<stop  offset="1" style="stop-color:#FFFFFF"/>
			</linearGradient>
			<path style="fill:url(#SVGID_2_);" d="M247.575,225.232l-12.204,12.204l-3.548,1.521l-2.573-8.227
				c-6.394-20.703-23.861-35.363-44.76-38.482c0.78-2.534,1.677-4.991,2.651-7.447v-0.039c23.549,4.133,42.615,21.21,49.555,43.629
				C240.128,226.947,243.793,225.894,247.575,225.232z"/>
			<linearGradient id="SVGID_3_" gradientUnits="userSpaceOnUse" x1="134.6263" y1="378.8874" x2="134.6263" y2="260.1383">
				<stop  offset="0" style="stop-color:#C2CECE"/>
				<stop  offset="1" style="stop-color:#FFFFFF"/>
			</linearGradient>
			<path style="fill:url(#SVGID_3_);" d="M180.872,223.389c-0.688-10.894,0.65-21.38,3.63-31.151
				c-2.738-0.409-5.529-0.642-8.369-0.642c-30.662,0-55.605,24.947-55.605,55.609c0,1.592,0.072,3.166,0.202,4.723l0.933,11.116
				l-10.76-2.943c-2.041-0.558-4.143-0.841-6.241-0.841c-1.196,0-2.41,0.093-3.606,0.274c-10.539,1.597-18.893,10.459-19.86,21.071
				c-0.419,4.548,0.465,9.068,2.543,13.071l4.436,8.536l-9.267,2.574c-5.837,1.62-9.915,6.964-9.915,12.995
				c0,7.436,6.05,13.486,13.49,13.486h59.076l58.703-58.703C189.159,258.909,182.042,241.909,180.872,223.389z"/>
			<linearGradient id="SVGID_4_" gradientUnits="userSpaceOnUse" x1="186.4911" y1="147.0875" x2="156.2744" y2="231.8893">
				<stop  offset="0" style="stop-color:#C2CECE"/>
				<stop  offset="1" style="stop-color:#EFF8FA"/>
			</linearGradient>
			<path style="opacity:0.3;fill:url(#SVGID_4_);" d="M180.872,223.389c-0.688-10.894,0.65-21.38,3.63-31.151
				c-2.738-0.409-5.529-0.642-8.369-0.642c-30.662,0-55.605,24.947-55.605,55.609c0,1.592,0.072,3.166,0.202,4.723l0.933,11.116
				l-10.76-2.943c-2.041-0.558-4.143-0.841-6.241-0.841c-1.196,0-2.41,0.093-3.606,0.274c-10.539,1.597-18.893,10.459-19.86,21.071
				c-0.419,4.548,0.465,9.068,2.543,13.071l4.436,8.536l-9.267,2.574c-5.837,1.62-9.915,6.964-9.915,12.995
				c0,7.436,6.05,13.486,13.49,13.486h59.076l58.703-58.703C189.159,258.909,182.042,241.909,180.872,223.389z"/>
			<path style="fill:#E1C943;" d="M180.872,223.389c1.17,18.52,8.287,35.519,19.39,49.177l35.119-35.12l-3.563,1.524l-2.563-8.26
				c-6.413-20.686-23.852-35.347-44.754-38.471C181.522,202.009,180.183,212.496,180.872,223.389z"/>
			<linearGradient id="SVGID_5_" gradientUnits="userSpaceOnUse" x1="208.0375" y1="378.8876" x2="208.0375" y2="260.1386">
				<stop  offset="0" style="stop-color:#C2CECE"/>
				<stop  offset="1" style="stop-color:#FFFFFF"/>
			</linearGradient>
			<path style="fill:url(#SVGID_5_);" d="M180.872,223.389c1.17,18.52,8.287,35.519,19.39,49.177l35.119-35.12l-3.563,1.524
				l-2.563-8.26c-6.413-20.686-23.852-35.347-44.754-38.471C181.522,202.009,180.183,212.496,180.872,223.389z"/>
			<linearGradient id="SVGID_6_" gradientUnits="userSpaceOnUse" x1="68.9916" y1="232.4023" x2="363.0371" y2="232.4023">
				<stop  offset="0" style="stop-color:#C2CECE"/>
				<stop  offset="1" style="stop-color:#EFF8FA"/>
			</linearGradient>
			<path style="opacity:0.3;fill:url(#SVGID_6_);" d="M180.872,223.389c1.17,18.52,8.287,35.519,19.39,49.177l35.119-35.12
				l-3.563,1.524l-2.563-8.26c-6.413-20.686-23.852-35.347-44.754-38.471C181.522,202.009,180.183,212.496,180.872,223.389z"/>
			<path style="fill:#DCEBEB;" d="M347.625,317.782c0-11.707-9.578-21.285-21.285-21.285h-20.83
				c-6.934,3.311-14.369,5.73-22.167,7.117l-0.401,0.681h43.399c7.436,0,13.486,6.05,13.486,13.488
				c0,7.436-6.05,13.486-13.486,13.486H141.558l-7.798,7.798h192.58C338.046,339.067,347.625,329.489,347.625,317.782z"/>
			<g>
				<path style="fill:#E2F0F0;" d="M289.879,292.527c4.484-7.642,6.277-16.375,5.186-25.343c-0.117-1.014-0.312-2.067-0.507-3.041
					c-3.197-15.323-15.596-27.799-30.919-30.919c-0.78-0.195-1.599-0.312-2.378-0.429c-1.91-0.273-3.899-0.429-5.809-0.429
					c-5.458,0-10.722,1.092-15.674,3.197l-4.406,1.871l12.204-12.204c2.417-0.39,4.913-0.624,7.408-0.663
					c2.417,0,4.874,0.156,7.369,0.507c21.054,2.924,37.82,20.04,40.432,41.134c0.273,2.222,0.39,4.406,0.39,6.55
					c-0.078,8.695-2.456,16.765-6.589,23.744h8.929c-6.94,3.314-14.387,5.732-22.185,7.096L289.879,292.527z"/>
				<linearGradient id="SVGID_7_" gradientUnits="userSpaceOnUse" x1="212.8776" y1="286.106" x2="356.508" y2="345.2992">
					<stop  offset="0" style="stop-color:#E0EEEE"/>
					<stop  offset="1" style="stop-color:#EFF8FA"/>
				</linearGradient>
				<path style="fill:url(#SVGID_7_);" d="M326.341,304.295h-43.399l0.401-0.681l6.525-11.075
					c4.501-7.634,6.294-16.401,5.186-25.355c-2.155-17.488-16.365-31.955-33.788-34.401c-1.934-0.272-3.891-0.409-5.818-0.409
					c-5.441,0-10.718,1.076-15.679,3.197l-4.387,1.876l-35.119,35.12l-58.703,58.703h184.783c7.436,0,13.486-6.05,13.486-13.486
					C339.827,310.345,333.777,304.295,326.341,304.295z"/>
			</g>
		</g>
		<g>
			
				<linearGradient id="SVGID_8_" gradientUnits="userSpaceOnUse" x1="1420.7974" y1="313.7573" x2="1420.7974" y2="263.5369" gradientTransform="matrix(-1 0 0 1 1844.9592 0)">
				<stop  offset="0" style="stop-color:#C2CECE"/>
				<stop  offset="1" style="stop-color:#FFFFFF"/>
			</linearGradient>
			<path style="fill:url(#SVGID_8_);" d="M397.53,231.664c0.412,1.039,0.792,2.078,1.121,3.15c0.297-0.049,0.577-0.082,0.874-0.115
				c0.874-0.099,1.748-0.148,2.655-0.148c12.978,0,23.515,10.537,23.515,23.515c0,0.676-0.017,1.336-0.082,1.995l-0.396,4.7
				l4.551-1.237c0.214-0.066,0.445-0.116,0.66-0.165c0.66-0.132,1.319-0.198,1.979-0.198c0.511,0,1.022,0.033,1.534,0.116
				c1.946,0.297,3.71,1.171,5.129,2.44c0.198,0.182,0.396,0.379,0.577,0.577c0.181,0.198,0.363,0.396,0.544,0.61
				c0.511,0.643,0.94,1.352,1.286,2.094c0.462,0.989,0.759,2.061,0.858,3.183c0.181,1.929-0.198,3.842-1.072,5.524l-1.88,3.611
				v0.017l3.925,1.088c0.462,0.132,0.907,0.313,1.303,0.528c1.748,1.006,2.886,2.886,2.886,4.964c0,1.567-0.643,2.985-1.666,4.024
				c-0.247,0.264-0.544,0.495-0.841,0.709c-0.924,0.61-2.012,0.973-3.199,0.973h-24.983l3.298,3.298h21.685
				c0.544,0,1.072-0.049,1.583-0.148c0.643-0.116,1.27-0.297,1.847-0.544c2.21-0.907,3.974-2.672,4.881-4.881
				c0.247-0.577,0.429-1.204,0.544-1.847c0.099-0.511,0.148-1.039,0.148-1.583c0-4.123-2.803-7.618-6.596-8.674
				c1.121-2.16,1.665-4.683,1.418-7.355c-0.544-5.986-5.227-10.966-11.18-11.873c-1.929-0.28-3.809-0.148-5.524,0.33
				c0.049-0.758,0.099-1.517,0.099-2.276c0-14.808-12.022-26.813-26.83-26.813C400.597,231.252,399.03,231.4,397.53,231.664z"/>
			
				<linearGradient id="SVGID_9_" gradientUnits="userSpaceOnUse" x1="1425.2181" y1="313.753" x2="1425.2181" y2="263.5285" gradientTransform="matrix(-1 0 0 1 1844.9592 0)">
				<stop  offset="0" style="stop-color:#C2CECE"/>
				<stop  offset="1" style="stop-color:#FFFFFF"/>
			</linearGradient>
			<path style="fill:url(#SVGID_9_);" d="M400.182,247.986c0.291-4.607-0.275-9.043-1.535-13.175
				c1.158-0.173,2.339-0.271,3.54-0.271c12.969,0,23.518,10.551,23.518,23.52c0,0.673-0.031,1.339-0.085,1.998l-0.395,4.701
				l4.551-1.245c0.863-0.236,1.752-0.356,2.64-0.356c0.506,0,1.019,0.039,1.525,0.116c4.458,0.676,7.991,4.424,8.4,8.912
				c0.177,1.924-0.197,3.835-1.076,5.528l-1.876,3.61l3.92,1.089c2.469,0.685,4.194,2.945,4.194,5.496
				c0,3.145-2.559,5.704-5.706,5.704h-24.986l-24.828-24.828C396.677,263.008,399.687,255.819,400.182,247.986z"/>
			
				<linearGradient id="SVGID_10_" gradientUnits="userSpaceOnUse" x1="1447.1542" y1="215.7141" x2="1434.3741" y2="251.5807" gradientTransform="matrix(-1 0 0 1 1844.9592 0)">
				<stop  offset="0" style="stop-color:#C2CECE"/>
				<stop  offset="1" style="stop-color:#EFF8FA"/>
			</linearGradient>
			<path style="opacity:0.3;fill:url(#SVGID_10_);" d="M400.182,247.986c0.291-4.607-0.275-9.043-1.535-13.175
				c1.158-0.173,2.339-0.271,3.54-0.271c12.969,0,23.518,10.551,23.518,23.52c0,0.673-0.031,1.339-0.085,1.998l-0.395,4.701
				l4.551-1.245c0.863-0.236,1.752-0.356,2.64-0.356c0.506,0,1.019,0.039,1.525,0.116c4.458,0.676,7.991,4.424,8.4,8.912
				c0.177,1.924-0.197,3.835-1.076,5.528l-1.876,3.61l3.92,1.089c2.469,0.685,4.194,2.945,4.194,5.496
				c0,3.145-2.559,5.704-5.706,5.704h-24.986l-24.828-24.828C396.677,263.008,399.687,255.819,400.182,247.986z"/>
			<path style="fill:#E1C943;" d="M371.97,248.765l5.161,5.162l1.501,0.643l1.088-3.48c2.704-8.756,10.092-14.957,18.931-16.276
				c-0.33-1.072-0.709-2.111-1.121-3.15v-0.017c-9.96,1.748-18.024,8.971-20.959,18.453
				C375.119,249.49,373.569,249.045,371.97,248.765z"/>
			
				<linearGradient id="SVGID_11_" gradientUnits="userSpaceOnUse" x1="1459.6488" y1="313.7467" x2="1459.6488" y2="263.5222" gradientTransform="matrix(-1 0 0 1 1844.9592 0)">
				<stop  offset="0" style="stop-color:#C2CECE"/>
				<stop  offset="1" style="stop-color:#FFFFFF"/>
			</linearGradient>
			<path style="fill:url(#SVGID_11_);" d="M371.97,248.765l5.161,5.162l1.501,0.643l1.088-3.48
				c2.704-8.756,10.092-14.957,18.931-16.276c-0.33-1.072-0.709-2.111-1.121-3.15v-0.017c-9.96,1.748-18.024,8.971-20.959,18.453
				C375.119,249.49,373.569,249.045,371.97,248.765z"/>
			<path style="fill:#E1C943;" d="M400.182,247.986c-0.495,7.833-3.505,15.023-8.201,20.799l-14.854-14.854l1.507,0.645l1.084-3.494
				c2.712-8.749,10.088-14.95,18.928-16.271C399.907,238.943,400.473,243.378,400.182,247.986z"/>
			
				<linearGradient id="SVGID_12_" gradientUnits="userSpaceOnUse" x1="1456.2672" y1="313.7531" x2="1456.2672" y2="263.5287" gradientTransform="matrix(-1 0 0 1 1844.9592 0)">
				<stop  offset="0" style="stop-color:#C2CECE"/>
				<stop  offset="1" style="stop-color:#FFFFFF"/>
			</linearGradient>
			<path style="fill:url(#SVGID_12_);" d="M400.182,247.986c-0.495,7.833-3.505,15.023-8.201,20.799l-14.854-14.854l1.507,0.645
				l1.084-3.494c2.712-8.749,10.088-14.95,18.928-16.271C399.907,238.943,400.473,243.378,400.182,247.986z"/>
			
				<linearGradient id="SVGID_13_" gradientUnits="userSpaceOnUse" x1="1397.458" y1="251.7977" x2="1521.824" y2="251.7977" gradientTransform="matrix(-1 0 0 1 1844.9592 0)">
				<stop  offset="0" style="stop-color:#C2CECE"/>
				<stop  offset="1" style="stop-color:#EFF8FA"/>
			</linearGradient>
			<path style="opacity:0.3;fill:url(#SVGID_13_);" d="M400.182,247.986c-0.495,7.833-3.505,15.023-8.201,20.799l-14.854-14.854
				l1.507,0.645l1.084-3.494c2.712-8.749,10.088-14.95,18.928-16.271C399.907,238.943,400.473,243.378,400.182,247.986z"/>
			<path style="fill:#DCEBEB;" d="M329.654,287.909c0-4.951,4.051-9.002,9.002-9.002h8.81c2.933,1.4,6.077,2.423,9.375,3.01
				l0.17,0.288h-18.356c-3.145,0-5.704,2.559-5.704,5.705c0,3.145,2.559,5.704,5.704,5.704h78.153l3.298,3.298h-81.451
				C333.705,296.911,329.654,292.86,329.654,287.909z"/>
			<g>
				<path style="fill:#E2F0F0;" d="M354.078,277.227c-1.896-3.232-2.655-6.926-2.193-10.719c0.049-0.429,0.132-0.874,0.214-1.286
					c1.352-6.481,6.596-11.758,13.077-13.077c0.33-0.083,0.676-0.132,1.006-0.181c0.808-0.115,1.649-0.181,2.457-0.181
					c2.309,0,4.535,0.462,6.629,1.352l1.863,0.792l-5.161-5.162c-1.022-0.165-2.078-0.264-3.133-0.28
					c-1.022,0-2.061,0.066-3.117,0.214c-8.905,1.237-15.996,8.476-17.1,17.397c-0.115,0.94-0.165,1.863-0.165,2.77
					c0.033,3.677,1.039,7.091,2.787,10.043h-3.776c2.935,1.402,6.085,2.424,9.383,3.001L354.078,277.227z"/>
				
					<linearGradient id="SVGID_14_" gradientUnits="userSpaceOnUse" x1="1458.3142" y1="274.5114" x2="1519.0621" y2="299.547" gradientTransform="matrix(-1 0 0 1 1844.9592 0)">
					<stop  offset="0" style="stop-color:#E0EEEE"/>
					<stop  offset="1" style="stop-color:#EFF8FA"/>
				</linearGradient>
				<path style="fill:url(#SVGID_14_);" d="M338.656,282.204h18.356l-0.17-0.288l-2.76-4.684c-1.904-3.229-2.662-6.937-2.193-10.724
					c0.911-7.397,6.921-13.515,14.291-14.55c0.818-0.115,1.646-0.173,2.461-0.173c2.301,0,4.533,0.455,6.632,1.352l1.855,0.794
					l14.854,14.854l24.828,24.828h-78.153c-3.145,0-5.704-2.559-5.704-5.704C332.952,284.763,335.511,282.204,338.656,282.204z"/>
			</g>
		</g>
		<g>
			<path style="fill:#E1C943;" d="M250.717,297.004l12.204,12.204l3.548,1.521l2.573-8.227c6.394-20.703,23.861-35.363,44.76-38.483
				c-0.78-2.534-1.677-4.99-2.652-7.447v-0.039c-23.549,4.133-42.615,21.21-49.555,43.629
				C258.164,298.719,254.499,297.666,250.717,297.004z"/>
			
				<linearGradient id="SVGID_15_" gradientUnits="userSpaceOnUse" x1="1532.2399" y1="450.6444" x2="1532.2399" y2="331.8955" gradientTransform="matrix(-1 0 0 1 1814.4998 0)">
				<stop  offset="0" style="stop-color:#C2CECE"/>
				<stop  offset="1" style="stop-color:#FFFFFF"/>
			</linearGradient>
			<path style="fill:url(#SVGID_15_);" d="M250.717,297.004l12.204,12.204l3.548,1.521l2.573-8.227
				c6.394-20.703,23.861-35.363,44.76-38.483c-0.78-2.534-1.677-4.99-2.652-7.447v-0.039c-23.549,4.133-42.615,21.21-49.555,43.629
				C258.164,298.719,254.499,297.666,250.717,297.004z"/>
			<g>
				
					<linearGradient id="SVGID_16_" gradientUnits="userSpaceOnUse" x1="1440.381" y1="450.6696" x2="1440.381" y2="331.93" gradientTransform="matrix(-1 0 0 1 1814.4998 0)">
					<stop  offset="0" style="stop-color:#C2CECE"/>
					<stop  offset="1" style="stop-color:#FFFFFF"/>
				</linearGradient>
				<path style="fill:url(#SVGID_16_);" d="M311.151,256.572c0.975,2.456,1.872,4.913,2.652,7.447
					c0.702-0.117,1.365-0.195,2.066-0.273c2.066-0.234,4.133-0.351,6.277-0.351c30.685,0,55.599,24.914,55.599,55.599
					c0,1.599-0.039,3.158-0.195,4.718l-0.936,11.112l10.761-2.924c0.507-0.156,1.052-0.273,1.559-0.39
					c1.56-0.312,3.119-0.468,4.679-0.468c1.209,0,2.417,0.078,3.626,0.273c4.601,0.702,8.773,2.768,12.126,5.77
					c0.468,0.429,0.936,0.897,1.365,1.365c0.429,0.468,0.858,0.936,1.287,1.443c1.209,1.521,2.222,3.197,3.041,4.952
					c1.092,2.339,1.794,4.874,2.027,7.525c0.429,4.562-0.468,9.084-2.534,13.061l-4.445,8.539v0.039l9.279,2.573
					c1.092,0.312,2.145,0.741,3.08,1.248c4.133,2.378,6.823,6.823,6.823,11.736c0,3.704-1.521,7.057-3.938,9.513
					c-0.585,0.624-1.287,1.17-1.989,1.677c-2.183,1.443-4.757,2.3-7.564,2.3h-59.069l7.798,7.798h51.271
					c1.287,0,2.534-0.117,3.743-0.351c1.52-0.273,3.002-0.702,4.367-1.287c5.224-2.144,9.396-6.316,11.541-11.541
					c0.585-1.365,1.014-2.846,1.287-4.367c0.234-1.209,0.351-2.456,0.351-3.743c0-9.747-6.628-18.013-15.596-20.509
					c2.651-5.108,3.938-11.073,3.353-17.389c-1.287-14.153-12.36-25.928-26.435-28.072c-4.562-0.663-9.007-0.351-13.061,0.78
					c0.117-1.794,0.234-3.587,0.234-5.381c0-35.012-28.423-63.397-63.436-63.397C318.403,255.597,314.699,255.948,311.151,256.572z"
					/>
				
					<linearGradient id="SVGID_17_" gradientUnits="userSpaceOnUse" x1="1450.8334" y1="450.6594" x2="1450.8334" y2="331.9103" gradientTransform="matrix(-1 0 0 1 1814.4998 0)">
					<stop  offset="0" style="stop-color:#C2CECE"/>
					<stop  offset="1" style="stop-color:#FFFFFF"/>
				</linearGradient>
				<path style="fill:url(#SVGID_17_);" d="M317.421,295.161c0.688-10.894-0.65-21.38-3.63-31.151
					c2.738-0.409,5.529-0.642,8.369-0.642c30.662,0,55.605,24.947,55.605,55.609c0,1.592-0.072,3.166-0.202,4.723l-0.933,11.116
					l10.76-2.943c2.041-0.558,4.143-0.841,6.241-0.841c1.196,0,2.41,0.093,3.606,0.274c10.539,1.597,18.893,10.459,19.86,21.071
					c0.419,4.548-0.464,9.068-2.543,13.071l-4.436,8.537l9.268,2.574c5.837,1.62,9.915,6.964,9.915,12.995
					c0,7.436-6.05,13.486-13.49,13.486h-59.076l-58.703-58.703C309.134,330.681,316.251,313.681,317.421,295.161z"/>
				<path style="fill:#E1C943;" d="M317.421,295.161c-1.17,18.52-8.287,35.519-19.39,49.177l-35.119-35.12l3.563,1.524l2.563-8.26
					c6.413-20.686,23.852-35.347,44.754-38.471C316.771,273.781,318.109,284.268,317.421,295.161z"/>
				
					<linearGradient id="SVGID_18_" gradientUnits="userSpaceOnUse" x1="1524.2445" y1="450.6595" x2="1524.2445" y2="331.9106" gradientTransform="matrix(-1 0 0 1 1814.4998 0)">
					<stop  offset="0" style="stop-color:#C2CECE"/>
					<stop  offset="1" style="stop-color:#FFFFFF"/>
				</linearGradient>
				<path style="fill:url(#SVGID_18_);" d="M317.421,295.161c-1.17,18.52-8.287,35.519-19.39,49.177l-35.119-35.12l3.563,1.524
					l2.563-8.26c6.413-20.686,23.852-35.347,44.754-38.471C316.771,273.781,318.109,284.268,317.421,295.161z"/>
				<path style="fill:#DCEBEB;" d="M150.668,389.554c0-11.707,9.578-21.285,21.285-21.285h20.83
					c6.934,3.311,14.369,5.73,22.167,7.117l0.401,0.681h-43.399c-7.436,0-13.486,6.05-13.486,13.488
					c0,7.436,6.05,13.486,13.486,13.486h184.783l7.798,7.798h-192.58C160.246,410.839,150.668,401.261,150.668,389.554z"/>
				<path style="fill:#EFF8FA;" d="M208.414,364.299c-4.484-7.642-6.277-16.375-5.186-25.343c0.117-1.014,0.312-2.067,0.507-3.041
					c3.197-15.323,15.596-27.799,30.919-30.918c0.78-0.195,1.599-0.312,2.379-0.429c1.91-0.273,3.899-0.429,5.809-0.429
					c5.458,0,10.722,1.092,15.674,3.197l4.406,1.871l-12.204-12.204c-2.417-0.39-4.912-0.624-7.408-0.663
					c-2.417,0-4.874,0.156-7.369,0.507c-21.054,2.924-37.82,20.04-40.432,41.134c-0.273,2.222-0.39,4.406-0.39,6.55
					c0.078,8.695,2.456,16.765,6.589,23.744h-8.929c6.94,3.314,14.387,5.732,22.185,7.096L208.414,364.299z"/>
				<linearGradient id="SVGID_19_" gradientUnits="userSpaceOnUse" x1="310.9562" y1="204.5666" x2="277.0981" y2="299.5876">
					<stop  offset="0" style="stop-color:#C2CECE"/>
					<stop  offset="1" style="stop-color:#EFF8FA"/>
				</linearGradient>
				<path style="fill:url(#SVGID_19_);" d="M322.161,263.369c-2.84,0-5.631,0.232-8.369,0.642
					c-20.902,3.124-38.341,17.785-44.754,38.471l-2.562,8.26l-3.563-1.524l-4.387-1.876c-4.961-2.121-10.238-3.196-15.679-3.196
					c-1.927,0-3.884,0.137-5.818,0.409c-17.423,2.446-31.633,16.913-33.788,34.401c-1.108,8.953,0.685,17.72,5.186,25.355
					l6.525,11.075l0.401,0.681h-43.399c-7.436,0-13.486,6.05-13.486,13.488c0,7.436,6.05,13.486,13.486,13.486h81.856
					l114.708-114.708C358.55,273.308,341.502,263.369,322.161,263.369z"/>
				<linearGradient id="SVGID_20_" gradientUnits="userSpaceOnUse" x1="258.6195" y1="324.0336" x2="460.9621" y2="407.4232">
					<stop  offset="0" style="stop-color:#E5F3F3"/>
					<stop  offset="1" style="stop-color:#E2F0F0"/>
				</linearGradient>
				<path style="fill:url(#SVGID_20_);" d="M419.387,376.56l-9.268-2.574l4.436-8.537c2.079-4.004,2.962-8.523,2.544-13.071
					c-0.967-10.612-9.321-19.474-19.86-21.071c-1.196-0.181-2.41-0.274-3.606-0.274c-2.098,0-4.2,0.284-6.241,0.842l-10.76,2.943
					l0.933-11.116c0.129-1.557,0.202-3.132,0.202-4.723c0-11.321-3.418-21.85-9.251-30.645L253.807,403.041h102.928h59.076
					c7.44,0,13.49-6.05,13.49-13.486C429.301,383.524,425.223,378.18,419.387,376.56z"/>
			</g>
		</g>
		<path style="fill:#DBC787;" d="M276.942,185.256c12.062,4.021,25.691,3.256,37.776-3.235
			c23.279-12.503,32.015-41.51,19.512-64.789c-3.376-6.285-7.956-11.508-13.301-15.541c2.123-0.301,4.249-0.441,6.373-0.506
			c-3.282-0.114-6.586,0.022-9.88,0.49c5.196,3.921,9.65,8.999,12.932,15.11c12.156,22.634,3.663,50.837-18.971,62.993
			c-11.75,6.311-25.001,7.054-36.729,3.145c0.271,0.546,0.549,1.091,0.839,1.632c2.721,5.066,6.113,9.532,9.992,13.379
			c-2.911-3.295-5.508-6.956-7.68-11C277.506,186.378,277.22,185.818,276.942,185.256z"/>
		<path style="fill:#CCB44D;" d="M380.432,131.814c-10.809-20.124-31.751-31.279-53.131-30.629
			c19.478,0.679,38.087,11.369,47.974,29.777c4.882,9.091,6.976,18.915,6.67,28.536c-0.621,19.542-11.302,38.234-29.765,48.151
			c-7.994,4.294-16.558,6.41-25.051,6.665c-15.398,0.462-30.549-5.375-41.645-16.38c11.573,13.098,28.352,20.121,45.429,19.608
			c8.735-0.262,17.543-2.438,25.765-6.855c18.99-10.199,29.975-29.425,30.614-49.524
			C387.607,151.268,385.454,141.164,380.432,131.814z"/>
		<path style="fill:#E1C142;" d="M352.18,207.65c18.463-9.916,29.144-28.609,29.765-48.151c0.306-9.622-1.788-19.446-6.67-28.536
			c-9.887-18.408-28.496-29.099-47.974-29.777c-2.124,0.064-4.25,0.204-6.373,0.506c5.344,4.033,9.925,9.256,13.301,15.541
			c12.503,23.279,3.767,52.286-19.512,64.789c-12.085,6.491-25.714,7.255-37.776,3.235c0.279,0.562,0.564,1.122,0.863,1.678
			c2.172,4.043,4.769,7.705,7.68,11c11.096,11.005,26.247,16.842,41.645,16.38C335.623,214.06,344.186,211.944,352.18,207.65z"/>
	</g>
</g>
</svg>
