<?xml version="1.0" encoding="iso-8859-1"?>
<!-- Generator: Adobe Illustrator 18.0.0, SVG Export Plug-In . SVG Version: 6.00 Build 0)  -->
<!DOCTYPE svg PUBLIC "-//W3C//DTD SVG 1.1//EN" "http://www.w3.org/Graphics/SVG/1.1/DTD/svg11.dtd">
<svg version="1.1" id="_x35_" xmlns="http://www.w3.org/2000/svg" xmlns:xlink="http://www.w3.org/1999/xlink" x="0px" y="0px"
	 viewBox="0 0 512 512" style="enable-background:new 0 0 512 512;" xml:space="preserve">
<g>
	<g>
		<linearGradient id="SVGID_1_" gradientUnits="userSpaceOnUse" x1="82.753" y1="365.022" x2="82.753" y2="208.9732">
			<stop  offset="0" style="stop-color:#C2CECE"/>
			<stop  offset="1" style="stop-color:#FFFFFF"/>
		</linearGradient>
		<path style="fill:url(#SVGID_1_);" d="M165.506,109.937c-1.281,3.228-2.46,6.456-3.485,9.787
			c-0.922-0.154-1.793-0.256-2.716-0.359c-2.716-0.308-5.431-0.461-8.25-0.461c-40.326,0-73.068,32.743-73.068,73.069
			c0,2.101,0.051,4.15,0.256,6.2l1.23,14.604l-14.142-3.843c-0.666-0.205-1.383-0.359-2.049-0.513
			c-2.05-0.41-4.099-0.615-6.149-0.615c-1.588,0-3.177,0.103-4.765,0.359c-6.046,0.922-11.529,3.638-15.936,7.583
			c-0.615,0.564-1.23,1.179-1.794,1.794c-0.564,0.615-1.127,1.23-1.691,1.896c-1.588,1.998-2.92,4.202-3.997,6.508
			c-1.435,3.074-2.357,6.405-2.665,9.889c-0.563,5.995,0.615,11.939,3.331,17.165l5.841,11.222v0.051l-12.195,3.382
			c-1.435,0.41-2.818,0.974-4.048,1.64c-5.431,3.126-8.967,8.967-8.967,15.423c0,4.868,1.998,9.274,5.175,12.503
			c0.769,0.82,1.691,1.537,2.613,2.203c2.869,1.896,6.251,3.023,9.941,3.023h77.629l-10.248,10.248H27.977
			c-1.691,0-3.331-0.154-4.919-0.461c-1.998-0.359-3.945-0.922-5.739-1.691c-6.866-2.818-12.349-8.301-15.167-15.167
			c-0.769-1.794-1.332-3.741-1.691-5.739C0.154,288.047,0,286.408,0,284.717c0-12.81,8.711-23.673,20.496-26.952
			c-3.484-6.713-5.175-14.552-4.407-22.853c1.691-18.6,16.243-34.075,34.741-36.893c5.995-0.871,11.836-0.461,17.165,1.025
			c-0.154-2.357-0.307-4.714-0.307-7.071c0-46.014,37.354-83.317,83.368-83.317C155.975,108.656,160.843,109.117,165.506,109.937z"
			/>
		<path style="fill:#E1C943;" d="M244.928,163.073l-16.038,16.038l-4.663,1.998l-3.382-10.812
			c-8.403-27.208-31.359-46.475-58.824-50.574c1.025-3.33,2.204-6.559,3.485-9.787v-0.051c30.949,5.432,56.005,27.875,65.126,57.338
			C235.141,165.327,239.958,163.944,244.928,163.073z"/>
		<linearGradient id="SVGID_2_" gradientUnits="userSpaceOnUse" x1="203.4748" y1="364.9889" x2="203.4748" y2="208.9279">
			<stop  offset="0" style="stop-color:#C2CECE"/>
			<stop  offset="1" style="stop-color:#FFFFFF"/>
		</linearGradient>
		<path style="fill:url(#SVGID_2_);" d="M244.928,163.073l-16.038,16.038l-4.663,1.998l-3.382-10.812
			c-8.403-27.208-31.359-46.475-58.824-50.574c1.025-3.33,2.204-6.559,3.485-9.787v-0.051c30.949,5.432,56.005,27.875,65.126,57.338
			C235.141,165.327,239.958,163.944,244.928,163.073z"/>
		<linearGradient id="SVGID_3_" gradientUnits="userSpaceOnUse" x1="96.4896" y1="365.0085" x2="96.4896" y2="208.9473">
			<stop  offset="0" style="stop-color:#C2CECE"/>
			<stop  offset="1" style="stop-color:#FFFFFF"/>
		</linearGradient>
		<path style="fill:url(#SVGID_3_);" d="M157.266,160.652c-0.905-14.317,0.854-28.098,4.77-40.939
			c-3.598-0.538-7.267-0.843-10.999-0.843c-40.297,0-73.077,32.786-73.077,73.082c0,2.092,0.095,4.161,0.265,6.207l1.226,14.609
			L65.31,208.9c-2.682-0.733-5.444-1.106-8.201-1.106c-1.571,0-3.167,0.123-4.739,0.36c-13.851,2.099-24.829,13.746-26.1,27.692
			c-0.551,5.977,0.61,11.917,3.343,17.178l5.83,11.219l-12.18,3.383c-7.671,2.129-13.03,9.152-13.03,17.078
			c0,9.773,7.951,17.724,17.729,17.724h77.639l77.149-77.148C168.157,207.331,158.804,184.99,157.266,160.652z"/>
		<linearGradient id="SVGID_4_" gradientUnits="userSpaceOnUse" x1="164.6508" y1="60.375" x2="124.9396" y2="171.8222">
			<stop  offset="0" style="stop-color:#C2CECE"/>
			<stop  offset="1" style="stop-color:#EFF8FA"/>
		</linearGradient>
		<path style="opacity:0.3;fill:url(#SVGID_4_);" d="M157.266,160.652c-0.905-14.317,0.854-28.098,4.77-40.939
			c-3.598-0.538-7.267-0.843-10.999-0.843c-40.297,0-73.077,32.786-73.077,73.082c0,2.092,0.095,4.161,0.265,6.207l1.226,14.609
			L65.31,208.9c-2.682-0.733-5.444-1.106-8.201-1.106c-1.571,0-3.167,0.123-4.739,0.36c-13.851,2.099-24.829,13.746-26.1,27.692
			c-0.551,5.977,0.61,11.917,3.343,17.178l5.83,11.219l-12.18,3.383c-7.671,2.129-13.03,9.152-13.03,17.078
			c0,9.773,7.951,17.724,17.729,17.724h77.639l77.149-77.148C168.157,207.331,158.804,184.99,157.266,160.652z"/>
		<path style="fill:#E1C943;" d="M157.266,160.652c1.538,24.339,10.891,46.68,25.482,64.628l46.154-46.155l-4.683,2.003
			l-3.368-10.856c-8.428-27.185-31.346-46.454-58.816-50.559C158.12,132.554,156.361,146.335,157.266,160.652z"/>
		<linearGradient id="SVGID_5_" gradientUnits="userSpaceOnUse" x1="192.9673" y1="365.0086" x2="192.9673" y2="208.9477">
			<stop  offset="0" style="stop-color:#C2CECE"/>
			<stop  offset="1" style="stop-color:#FFFFFF"/>
		</linearGradient>
		<path style="fill:url(#SVGID_5_);" d="M157.266,160.652c1.538,24.339,10.891,46.68,25.482,64.628l46.154-46.155l-4.683,2.003
			l-3.368-10.856c-8.428-27.185-31.346-46.454-58.816-50.559C158.12,132.554,156.361,146.335,157.266,160.652z"/>
		<linearGradient id="SVGID_6_" gradientUnits="userSpaceOnUse" x1="10.2314" y1="172.4964" x2="396.6697" y2="172.4964">
			<stop  offset="0" style="stop-color:#C2CECE"/>
			<stop  offset="1" style="stop-color:#EFF8FA"/>
		</linearGradient>
		<path style="opacity:0.3;fill:url(#SVGID_6_);" d="M157.266,160.652c1.538,24.339,10.891,46.68,25.482,64.628l46.154-46.155
			l-4.683,2.003l-3.368-10.856c-8.428-27.185-31.346-46.454-58.816-50.559C158.12,132.554,156.361,146.335,157.266,160.652z"/>
		<path style="fill:#DCEBEB;" d="M376.414,284.703c0-15.385-12.588-27.973-27.973-27.973h-27.375
			c-9.113,4.351-18.884,7.53-29.132,9.353l-0.527,0.894h57.036c9.773,0,17.724,7.951,17.724,17.726
			c0,9.773-7.951,17.724-17.724,17.724H105.599l-10.248,10.248h253.09C363.826,312.676,376.414,300.089,376.414,284.703z"/>
		<g>
			<path style="fill:#E2F0F0;" d="M300.524,251.513c5.893-10.043,8.25-21.521,6.815-33.306c-0.154-1.332-0.41-2.716-0.666-3.997
				c-4.202-20.137-20.496-36.534-40.633-40.633c-1.025-0.256-2.101-0.41-3.126-0.564c-2.511-0.359-5.124-0.564-7.635-0.564
				c-7.174,0-14.091,1.435-20.598,4.202l-5.79,2.459l16.038-16.038c3.177-0.512,6.456-0.82,9.735-0.871
				c3.177,0,6.405,0.205,9.685,0.666c27.669,3.843,49.703,26.337,53.136,54.058c0.359,2.921,0.512,5.79,0.512,8.608
				c-0.102,11.426-3.228,22.033-8.66,31.205h11.734c-9.121,4.356-18.908,7.533-29.156,9.326L300.524,251.513z"/>
			<linearGradient id="SVGID_7_" gradientUnits="userSpaceOnUse" x1="199.3281" y1="243.0743" x2="388.0887" y2="320.8665">
				<stop  offset="0" style="stop-color:#E0EEEE"/>
				<stop  offset="1" style="stop-color:#EFF8FA"/>
			</linearGradient>
			<path style="fill:url(#SVGID_7_);" d="M348.443,266.978h-57.036l0.527-0.894l8.575-14.555
				c5.915-10.033,8.271-21.554,6.815-33.321c-2.832-22.983-21.507-41.995-44.405-45.21c-2.542-0.358-5.114-0.538-7.646-0.538
				c-7.151,0-14.086,1.414-20.606,4.201l-5.765,2.466l-46.154,46.155l-77.149,77.148h242.844c9.773,0,17.724-7.951,17.724-17.724
				C366.167,274.929,358.215,266.978,348.443,266.978z"/>
		</g>
	</g>
	<g>
		
			<linearGradient id="SVGID_8_" gradientUnits="userSpaceOnUse" x1="1367.9592" y1="279.414" x2="1367.9592" y2="213.4137" gradientTransform="matrix(-1 0 0 1 1844.9592 0)">
			<stop  offset="0" style="stop-color:#C2CECE"/>
			<stop  offset="1" style="stop-color:#FFFFFF"/>
		</linearGradient>
		<path style="fill:url(#SVGID_8_);" d="M442,171.527c0.542,1.365,1.04,2.731,1.474,4.139c0.39-0.065,0.758-0.108,1.148-0.152
			c1.149-0.13,2.297-0.195,3.489-0.195c17.056,0,30.904,13.848,30.904,30.904c0,0.888-0.022,1.755-0.108,2.622l-0.52,6.176
			l5.981-1.625c0.282-0.087,0.585-0.152,0.867-0.217c0.867-0.173,1.734-0.26,2.601-0.26c0.672,0,1.344,0.043,2.016,0.152
			c2.557,0.39,4.876,1.539,6.74,3.207c0.26,0.239,0.52,0.499,0.759,0.759c0.238,0.26,0.477,0.52,0.715,0.802
			c0.672,0.845,1.235,1.777,1.69,2.752c0.607,1.3,0.997,2.709,1.127,4.183c0.238,2.535-0.26,5.049-1.409,7.26l-2.471,4.746v0.022
			l5.158,1.43c0.607,0.173,1.192,0.412,1.712,0.693c2.297,1.322,3.793,3.793,3.793,6.523c0,2.059-0.845,3.923-2.189,5.288
			c-0.325,0.347-0.715,0.65-1.105,0.932c-1.214,0.802-2.644,1.279-4.204,1.279h-32.833l4.334,4.334h28.499
			c0.715,0,1.409-0.065,2.081-0.195c0.845-0.152,1.669-0.39,2.427-0.715c2.904-1.192,5.223-3.511,6.415-6.415
			c0.325-0.759,0.564-1.582,0.715-2.427c0.13-0.672,0.195-1.365,0.195-2.081c0-5.418-3.684-10.012-8.669-11.399
			c1.474-2.839,2.189-6.155,1.864-9.665c-0.715-7.867-6.87-14.412-14.694-15.604c-2.535-0.368-5.006-0.195-7.26,0.434
			c0.065-0.997,0.13-1.994,0.13-2.991c0-19.461-15.799-35.239-35.26-35.239C446.031,170.985,443.972,171.18,442,171.527z"/>
		
			<linearGradient id="SVGID_9_" gradientUnits="userSpaceOnUse" x1="1373.7692" y1="279.4082" x2="1373.7692" y2="213.4028" gradientTransform="matrix(-1 0 0 1 1844.9592 0)">
			<stop  offset="0" style="stop-color:#C2CECE"/>
			<stop  offset="1" style="stop-color:#FFFFFF"/>
		</linearGradient>
		<path style="fill:url(#SVGID_9_);" d="M445.485,192.976c0.383-6.055-0.361-11.884-2.017-17.315
			c1.522-0.228,3.073-0.357,4.652-0.357c17.043,0,30.908,13.867,30.908,30.91c0,0.885-0.04,1.76-0.112,2.625l-0.519,6.179
			l5.981-1.636c1.134-0.31,2.303-0.468,3.469-0.468c0.664,0,1.34,0.052,2.004,0.152c5.858,0.888,10.501,5.814,11.039,11.712
			c0.233,2.528-0.258,5.04-1.414,7.266l-2.466,4.745l5.151,1.431c3.244,0.9,5.511,3.871,5.511,7.223
			c0,4.133-3.363,7.496-7.498,7.496h-32.837l-32.63-32.63C440.879,212.719,444.835,203.27,445.485,192.976z"/>
		
			<linearGradient id="SVGID_10_" gradientUnits="userSpaceOnUse" x1="1402.5977" y1="150.5646" x2="1385.8019" y2="197.7008" gradientTransform="matrix(-1 0 0 1 1844.9592 0)">
			<stop  offset="0" style="stop-color:#C2CECE"/>
			<stop  offset="1" style="stop-color:#EFF8FA"/>
		</linearGradient>
		<path style="opacity:0.3;fill:url(#SVGID_10_);" d="M445.485,192.976c0.383-6.055-0.361-11.884-2.017-17.315
			c1.522-0.228,3.073-0.357,4.652-0.357c17.043,0,30.908,13.867,30.908,30.91c0,0.885-0.04,1.76-0.112,2.625l-0.519,6.179
			l5.981-1.636c1.134-0.31,2.303-0.468,3.469-0.468c0.664,0,1.34,0.052,2.004,0.152c5.858,0.888,10.501,5.814,11.039,11.712
			c0.233,2.528-0.258,5.04-1.414,7.266l-2.466,4.745l5.151,1.431c3.244,0.9,5.511,3.871,5.511,7.223
			c0,4.133-3.363,7.496-7.498,7.496h-32.837l-32.63-32.63C440.879,212.719,444.835,203.27,445.485,192.976z"/>
		<path style="fill:#E1C943;" d="M408.408,194l6.783,6.783l1.972,0.845l1.43-4.573c3.554-11.508,13.263-19.656,24.879-21.39
			c-0.434-1.409-0.932-2.774-1.474-4.139v-0.022c-13.09,2.297-23.687,11.789-27.545,24.251
			C412.548,194.954,410.511,194.369,408.408,194z"/>
		
			<linearGradient id="SVGID_11_" gradientUnits="userSpaceOnUse" x1="1419.0181" y1="279.3999" x2="1419.0181" y2="213.3945" gradientTransform="matrix(-1 0 0 1 1844.9592 0)">
			<stop  offset="0" style="stop-color:#C2CECE"/>
			<stop  offset="1" style="stop-color:#FFFFFF"/>
		</linearGradient>
		<path style="fill:url(#SVGID_11_);" d="M408.408,194l6.783,6.783l1.972,0.845l1.43-4.573c3.554-11.508,13.263-19.656,24.879-21.39
			c-0.434-1.409-0.932-2.774-1.474-4.139v-0.022c-13.09,2.297-23.687,11.789-27.545,24.251
			C412.548,194.954,410.511,194.369,408.408,194z"/>
		<path style="fill:#E1C943;" d="M445.485,192.976c-0.65,10.294-4.606,19.743-10.777,27.334l-19.521-19.521l1.98,0.847l1.424-4.591
			c3.565-11.498,13.258-19.648,24.876-21.384C445.124,181.092,445.868,186.921,445.485,192.976z"/>
		
			<linearGradient id="SVGID_12_" gradientUnits="userSpaceOnUse" x1="1414.574" y1="279.4083" x2="1414.574" y2="213.4029" gradientTransform="matrix(-1 0 0 1 1844.9592 0)">
			<stop  offset="0" style="stop-color:#C2CECE"/>
			<stop  offset="1" style="stop-color:#FFFFFF"/>
		</linearGradient>
		<path style="fill:url(#SVGID_12_);" d="M445.485,192.976c-0.65,10.294-4.606,19.743-10.777,27.334l-19.521-19.521l1.98,0.847
			l1.424-4.591c3.565-11.498,13.258-19.648,24.876-21.384C445.124,181.092,445.868,186.921,445.485,192.976z"/>
		
			<linearGradient id="SVGID_13_" gradientUnits="userSpaceOnUse" x1="1337.2867" y1="197.986" x2="1500.729" y2="197.986" gradientTransform="matrix(-1 0 0 1 1844.9592 0)">
			<stop  offset="0" style="stop-color:#C2CECE"/>
			<stop  offset="1" style="stop-color:#EFF8FA"/>
		</linearGradient>
		<path style="opacity:0.3;fill:url(#SVGID_13_);" d="M445.485,192.976c-0.65,10.294-4.606,19.743-10.777,27.334l-19.521-19.521
			l1.98,0.847l1.424-4.591c3.565-11.498,13.258-19.648,24.876-21.384C445.124,181.092,445.868,186.921,445.485,192.976z"/>
		<path style="fill:#DCEBEB;" d="M352.797,245.444c0-6.507,5.324-11.831,11.831-11.831h11.578c3.854,1.84,7.987,3.185,12.321,3.956
			l0.223,0.378h-24.123c-4.133,0-7.496,3.363-7.496,7.497c0,4.133,3.363,7.496,7.496,7.496h102.71l4.334,4.334H364.628
			C358.121,257.275,352.797,251.951,352.797,245.444z"/>
		<g>
			<path style="fill:#E2F0F0;" d="M384.895,231.406c-2.492-4.248-3.489-9.102-2.882-14.087c0.065-0.564,0.173-1.149,0.282-1.69
				c1.777-8.517,8.669-15.452,17.186-17.186c0.434-0.108,0.889-0.173,1.322-0.238c1.062-0.152,2.167-0.238,3.229-0.238
				c3.034,0,5.96,0.607,8.712,1.777l2.449,1.04L408.408,194c-1.344-0.217-2.73-0.347-4.118-0.368c-1.344,0-2.709,0.087-4.096,0.282
				c-11.703,1.625-21.022,11.139-22.474,22.864c-0.152,1.235-0.217,2.449-0.217,3.641c0.043,4.833,1.365,9.319,3.663,13.198h-4.963
				c3.858,1.842,7.997,3.186,12.331,3.944L384.895,231.406z"/>
			
				<linearGradient id="SVGID_14_" gradientUnits="userSpaceOnUse" x1="1417.2643" y1="227.8366" x2="1497.0999" y2="260.7386" gradientTransform="matrix(-1 0 0 1 1844.9592 0)">
				<stop  offset="0" style="stop-color:#E0EEEE"/>
				<stop  offset="1" style="stop-color:#EFF8FA"/>
			</linearGradient>
			<path style="fill:url(#SVGID_14_);" d="M364.627,237.947h24.123l-0.223-0.378l-3.627-6.156
				c-2.502-4.243-3.498-9.116-2.883-14.093c1.198-9.721,9.096-17.762,18.781-19.122c1.075-0.151,2.163-0.228,3.234-0.228
				c3.024,0,5.958,0.598,8.715,1.777l2.439,1.043l19.521,19.521l32.63,32.63h-102.71c-4.133,0-7.496-3.363-7.496-7.496
				C357.131,241.31,360.494,237.947,364.627,237.947z"/>
		</g>
	</g>
	<g>
		<path style="fill:#E1C943;" d="M249.058,257.396l16.038,16.038l4.663,1.999l3.382-10.812
			c8.403-27.209,31.359-46.475,58.824-50.574c-1.025-3.33-2.204-6.559-3.485-9.787v-0.051
			c-30.949,5.432-56.005,27.875-65.126,57.338C258.845,259.651,254.028,258.267,249.058,257.396z"/>
		
			<linearGradient id="SVGID_15_" gradientUnits="userSpaceOnUse" x1="1523.9888" y1="459.3124" x2="1523.9888" y2="303.2514" gradientTransform="matrix(-1 0 0 1 1814.4998 0)">
			<stop  offset="0" style="stop-color:#C2CECE"/>
			<stop  offset="1" style="stop-color:#FFFFFF"/>
		</linearGradient>
		<path style="fill:url(#SVGID_15_);" d="M249.058,257.396l16.038,16.038l4.663,1.999l3.382-10.812
			c8.403-27.209,31.359-46.475,58.824-50.574c-1.025-3.33-2.204-6.559-3.485-9.787v-0.051
			c-30.949,5.432-56.005,27.875-65.126,57.338C258.845,259.651,254.028,258.267,249.058,257.396z"/>
		<g>
			
				<linearGradient id="SVGID_16_" gradientUnits="userSpaceOnUse" x1="1403.267" y1="459.3455" x2="1403.267" y2="303.2967" gradientTransform="matrix(-1 0 0 1 1814.4998 0)">
				<stop  offset="0" style="stop-color:#C2CECE"/>
				<stop  offset="1" style="stop-color:#FFFFFF"/>
			</linearGradient>
			<path style="fill:url(#SVGID_16_);" d="M328.48,204.26c1.281,3.228,2.46,6.456,3.485,9.787c0.922-0.154,1.793-0.256,2.716-0.359
				c2.716-0.307,5.431-0.461,8.25-0.461c40.326,0,73.069,32.743,73.069,73.069c0,2.101-0.051,4.15-0.256,6.2l-1.23,14.604
				l14.142-3.843c0.666-0.205,1.383-0.359,2.049-0.513c2.05-0.41,4.099-0.615,6.149-0.615c1.588,0,3.177,0.103,4.765,0.359
				c6.046,0.922,11.529,3.638,15.936,7.583c0.615,0.564,1.23,1.179,1.794,1.794c0.564,0.615,1.127,1.23,1.691,1.896
				c1.588,1.999,2.92,4.202,3.997,6.508c1.435,3.074,2.357,6.405,2.664,9.889c0.564,5.995-0.615,11.939-3.331,17.165l-5.841,11.222
				v0.051l12.195,3.382c1.435,0.41,2.818,0.974,4.048,1.64c5.432,3.126,8.967,8.967,8.967,15.423c0,4.868-1.998,9.275-5.175,12.503
				c-0.769,0.82-1.691,1.537-2.613,2.203c-2.869,1.896-6.251,3.023-9.941,3.023H388.38l10.248,10.248h67.381
				c1.691,0,3.331-0.154,4.919-0.461c1.998-0.359,3.945-0.922,5.739-1.691c6.866-2.818,12.349-8.301,15.167-15.167
				c0.769-1.794,1.332-3.741,1.691-5.739c0.307-1.588,0.461-3.228,0.461-4.919c0-12.81-8.711-23.673-20.496-26.952
				c3.484-6.712,5.175-14.552,4.407-22.853c-1.691-18.6-16.243-34.075-34.741-36.893c-5.995-0.871-11.837-0.461-17.165,1.025
				c0.154-2.357,0.307-4.714,0.307-7.071c0-46.014-37.354-83.317-83.368-83.317C338.011,202.979,333.143,203.44,328.48,204.26z"/>
			
				<linearGradient id="SVGID_17_" gradientUnits="userSpaceOnUse" x1="1417.0035" y1="459.332" x2="1417.0035" y2="303.2708" gradientTransform="matrix(-1 0 0 1 1814.4998 0)">
				<stop  offset="0" style="stop-color:#C2CECE"/>
				<stop  offset="1" style="stop-color:#FFFFFF"/>
			</linearGradient>
			<path style="fill:url(#SVGID_17_);" d="M336.72,254.975c0.904-14.317-0.854-28.098-4.77-40.939
				c3.598-0.538,7.267-0.844,10.999-0.844c40.297,0,73.077,32.786,73.077,73.082c0,2.092-0.095,4.161-0.265,6.207l-1.226,14.609
				l14.141-3.868c2.682-0.733,5.444-1.106,8.201-1.106c1.571,0,3.167,0.123,4.739,0.36c13.851,2.099,24.829,13.746,26.1,27.692
				c0.55,5.977-0.611,11.917-3.343,17.179l-5.83,11.219l12.18,3.383c7.671,2.129,13.03,9.152,13.03,17.078
				c0,9.773-7.951,17.724-17.729,17.724h-77.639l-77.149-77.148C325.829,301.655,335.182,279.314,336.72,254.975z"/>
			<path style="fill:#E1C943;" d="M336.72,254.975c-1.538,24.339-10.891,46.68-25.482,64.628l-46.154-46.155l4.683,2.003
				l3.368-10.856c8.428-27.185,31.346-46.454,58.816-50.559C335.866,226.877,337.625,240.658,336.72,254.975z"/>
			
				<linearGradient id="SVGID_18_" gradientUnits="userSpaceOnUse" x1="1513.4812" y1="459.3321" x2="1513.4812" y2="303.2712" gradientTransform="matrix(-1 0 0 1 1814.4998 0)">
				<stop  offset="0" style="stop-color:#C2CECE"/>
				<stop  offset="1" style="stop-color:#FFFFFF"/>
			</linearGradient>
			<path style="fill:url(#SVGID_18_);" d="M336.72,254.975c-1.538,24.339-10.891,46.68-25.482,64.628l-46.154-46.155l4.683,2.003
				l3.368-10.856c8.428-27.185,31.346-46.454,58.816-50.559C335.866,226.877,337.625,240.658,336.72,254.975z"/>
			<path style="fill:#DCEBEB;" d="M117.572,379.027c0-15.385,12.588-27.973,27.973-27.973h27.375
				c9.113,4.351,18.884,7.53,29.132,9.353l0.527,0.894h-57.036c-9.773,0-17.724,7.951-17.724,17.726
				c0,9.773,7.951,17.724,17.724,17.724h242.844L398.635,407h-253.09C130.16,407,117.572,394.412,117.572,379.027z"/>
			<path style="fill:#EFF8FA;" d="M193.462,345.837c-5.893-10.043-8.25-21.521-6.815-33.306c0.154-1.332,0.41-2.716,0.666-3.997
				c4.202-20.137,20.496-36.534,40.633-40.633c1.025-0.256,2.101-0.41,3.126-0.564c2.511-0.359,5.124-0.564,7.635-0.564
				c7.174,0,14.091,1.435,20.598,4.202l5.79,2.459l-16.038-16.038c-3.177-0.512-6.456-0.82-9.735-0.871
				c-3.177,0-6.405,0.205-9.684,0.666c-27.669,3.843-49.703,26.337-53.136,54.058c-0.359,2.921-0.512,5.79-0.512,8.608
				c0.102,11.427,3.228,22.033,8.66,31.205h-11.734c9.121,4.356,18.908,7.533,29.156,9.326L193.462,345.837z"/>
			<linearGradient id="SVGID_19_" gradientUnits="userSpaceOnUse" x1="328.224" y1="135.9144" x2="283.7274" y2="260.7919">
				<stop  offset="0" style="stop-color:#C2CECE"/>
				<stop  offset="1" style="stop-color:#EFF8FA"/>
			</linearGradient>
			<path style="fill:url(#SVGID_19_);" d="M342.949,213.193c-3.733,0-7.401,0.305-10.999,0.844
				c-27.47,4.105-50.388,23.374-58.816,50.559l-3.367,10.856l-4.683-2.003l-5.766-2.466c-6.52-2.787-13.455-4.201-20.606-4.201
				c-2.532,0-5.104,0.18-7.646,0.538c-22.898,3.215-41.573,22.227-44.405,45.21c-1.456,11.767,0.9,23.288,6.815,33.321l8.575,14.555
				l0.527,0.895h-57.036c-9.773,0-17.724,7.951-17.724,17.726c0,9.773,7.951,17.724,17.724,17.724h107.575l150.75-150.75
				C390.773,226.255,368.368,213.193,342.949,213.193z"/>
			<linearGradient id="SVGID_20_" gradientUnits="userSpaceOnUse" x1="259.4427" y1="292.9191" x2="525.3632" y2="402.5106">
				<stop  offset="0" style="stop-color:#E5F3F3"/>
				<stop  offset="1" style="stop-color:#E2F0F0"/>
			</linearGradient>
			<path style="fill:url(#SVGID_20_);" d="M470.724,361.949l-12.18-3.382l5.83-11.219c2.732-5.262,3.893-11.201,3.343-17.178
				c-1.271-13.946-12.25-25.592-26.101-27.692c-1.571-0.238-3.167-0.361-4.739-0.361c-2.757,0-5.52,0.373-8.201,1.106l-14.141,3.868
				l1.226-14.609c0.17-2.046,0.265-4.116,0.265-6.207c0-14.878-4.492-28.715-12.158-40.274l-150.75,150.75h135.268h77.639
				c9.778,0,17.729-7.951,17.729-17.724C483.754,371.102,478.395,364.079,470.724,361.949z"/>
		</g>
	</g>
	<path style="fill:#DBC787;" d="M283.522,110.537c15.852,5.284,33.763,4.279,49.646-4.251
		c30.593-16.432,42.074-54.553,25.642-85.147c-4.437-8.26-10.456-15.124-17.48-20.424c2.79-0.396,5.584-0.58,8.375-0.665
		c-4.313-0.15-8.655,0.029-12.984,0.643c6.829,5.153,12.682,11.827,16.996,19.858c15.976,29.745,4.814,66.81-24.931,82.786
		c-15.442,8.294-32.857,9.271-48.269,4.133c0.356,0.718,0.721,1.434,1.103,2.145c3.576,6.658,8.034,12.527,13.131,17.583
		c-3.826-4.33-7.239-9.142-10.093-14.456C284.263,112.011,283.888,111.275,283.522,110.537z"/>
	<path style="fill:#9A8427;" d="M419.53,40.302C405.325,13.855,377.803-0.805,349.705,0.05
		c25.599,0.892,50.054,14.941,63.048,39.134c6.417,11.947,9.168,24.857,8.766,37.503c-0.816,25.682-14.853,50.248-39.117,63.28
		c-10.506,5.643-21.76,8.424-32.922,8.759c-20.236,0.607-40.148-7.064-54.73-21.527c15.21,17.213,37.261,26.443,59.704,25.769
		c11.48-0.345,23.055-3.205,33.86-9.009c24.956-13.404,39.394-38.671,40.233-65.085C428.959,65.869,426.129,52.59,419.53,40.302z"/>
	<path style="fill:#E1C142;" d="M382.401,139.966c24.264-13.032,38.302-37.598,39.117-63.28c0.402-12.645-2.35-25.556-8.766-37.503
		C399.759,14.992,375.303,0.942,349.705,0.05c-2.791,0.085-5.585,0.269-8.375,0.665c7.024,5.3,13.043,12.164,17.48,20.424
		c16.432,30.594,4.951,68.715-25.642,85.147c-15.883,8.531-33.793,9.535-49.646,4.251c0.367,0.738,0.742,1.474,1.134,2.206
		c2.854,5.314,6.267,10.126,10.093,14.456c14.582,14.463,34.495,22.134,54.73,21.527
		C360.641,148.39,371.895,145.609,382.401,139.966z"/>
</g>
</svg>
